<?xml version="1.0" encoding="utf-8"?>
<!-- Generator: Adobe Illustrator 16.0.0, SVG Export Plug-In . SVG Version: 6.00 Build 0)  -->
<!DOCTYPE svg PUBLIC "-//W3C//DTD SVG 1.1//EN" "http://www.w3.org/Graphics/SVG/1.1/DTD/svg11.dtd">
<svg version="1.1" id="Layer_1" xmlns="http://www.w3.org/2000/svg" xmlns:xlink="http://www.w3.org/1999/xlink" x="0px" y="0px"
	 width="14px" height="14px" viewBox="3.25 0 14 14" enable-background="new 3.25 0 14 14" xml:space="preserve">
<g id="like">
	<path fill="#333333" d="M16.01,4.582c-0.547-0.144-1.833-0.142-3.713-0.191c0.089-0.411,0.109-0.781,0.109-1.438
		C12.406,1.383,11.262,0,10.25,0C9.536,0,8.947,0.584,8.938,1.302c-0.01,0.881-0.282,2.403-1.75,3.175
		C7.081,4.534,6.772,4.686,6.727,4.705l0.023,0.02c-0.229-0.198-0.548-0.35-0.875-0.35H4.563c-0.724,0-1.313,0.589-1.313,1.313v7
		C3.25,13.411,3.839,14,4.563,14h1.313c0.521,0,0.957-0.314,1.167-0.755c0.005,0.001,0.015,0.004,0.021,0.005
		c0.029,0.007,0.063,0.016,0.105,0.027c0.008,0.001,0.012,0.002,0.02,0.005c0.252,0.063,0.737,0.179,1.774,0.417
		C9.184,13.75,10.358,14,11.575,14h2.392c0.729,0,1.254-0.28,1.567-0.843c0.004-0.009,0.105-0.205,0.188-0.471
		c0.062-0.2,0.084-0.482,0.01-0.77c0.47-0.323,0.622-0.812,0.72-1.129c0.165-0.521,0.116-0.913,0.001-1.193
		c0.263-0.25,0.49-0.63,0.584-1.21c0.06-0.36-0.005-0.729-0.171-1.038c0.248-0.278,0.361-0.628,0.374-0.952l0.005-0.091
		c0.004-0.058,0.006-0.093,0.006-0.219C17.25,5.531,16.867,4.827,16.01,4.582z M6.313,12.688c0,0.242-0.195,0.438-0.438,0.438H4.563
		c-0.242,0-0.438-0.196-0.438-0.438v-7c0-0.242,0.195-0.438,0.438-0.438h1.313c0.242,0,0.438,0.196,0.438,0.438V12.688z
		 M16.365,6.359C16.357,6.575,16.266,7,15.5,7c-0.656,0-0.875,0-0.875,0c-0.121,0-0.219,0.098-0.219,0.219s0.098,0.219,0.219,0.219
		c0,0,0.191,0,0.848,0s0.743,0.544,0.7,0.807c-0.054,0.326-0.207,0.943-0.946,0.943c-0.738,0-1.039,0-1.039,0
		c-0.121,0-0.219,0.098-0.219,0.219c0,0.121,0.098,0.219,0.219,0.219c0,0,0.52,0,0.861,0c0.739,0,0.673,0.563,0.567,0.899
		c-0.139,0.442-0.225,0.851-1.155,0.851c-0.314,0-0.713,0-0.713,0c-0.122,0-0.219,0.098-0.219,0.219
		c0,0.121,0.097,0.219,0.219,0.219c0,0,0.303,0,0.686,0c0.479,0,0.501,0.453,0.451,0.615c-0.055,0.178-0.119,0.31-0.122,0.315
		c-0.133,0.238-0.345,0.382-0.796,0.382h-2.392c-1.201,0-2.393-0.272-2.424-0.279c-1.817-0.419-1.913-0.451-2.027-0.484
		c0,0-0.37-0.062-0.37-0.385L6.75,5.934c0-0.205,0.131-0.391,0.347-0.456c0.027-0.011,0.064-0.022,0.09-0.033
		c1.999-0.827,2.607-2.642,2.625-4.132c0.002-0.209,0.164-0.438,0.438-0.438c0.462,0,1.28,0.928,1.28,2.077
		c0,1.038-0.042,1.217-0.405,2.298c4.375,0,4.344,0.063,4.73,0.164c0.479,0.137,0.52,0.533,0.52,0.67
		C16.375,6.234,16.371,6.212,16.365,6.359z"/>
	<path fill="#333333" d="M5.219,11.375c-0.362,0-0.656,0.294-0.656,0.656s0.294,0.656,0.656,0.656s0.656-0.294,0.656-0.656
		S5.582,11.375,5.219,11.375z M5.219,12.25C5.099,12.25,5,12.152,5,12.031s0.099-0.219,0.219-0.219s0.219,0.098,0.219,0.219
		S5.339,12.25,5.219,12.25z"/>
</g>
</svg>
